<svg width="194" height="211" viewBox="0 0 194 211" fill="none" xmlns="http://www.w3.org/2000/svg">
<path d="M122.817 42.2418L96.8342 46.5402C95.2245 46.8065 93.9905 45.1373 94.717 43.6764L103.009 27.0039C103.737 25.5406 102.498 23.8696 100.886 24.141L55.9653 31.7076C55.3061 31.8186 54.7459 32.2517 54.4725 32.8617L40.5844 63.846C39.9298 65.3065 41.1704 66.906 42.7478 66.6353L174.484 44.0268C190.594 41.262 199.994 61.585 187.455 72.0703L23.051 209.548C18.062 213.72 10.9289 208.083 13.834 202.265L68.502 92.7724C68.7884 92.1988 69.3324 91.7973 69.965 91.6926L97.4894 87.1392C99.1422 86.8657 100.379 88.6239 99.5623 90.0868L74.55 134.914C73.4575 136.872 75.9201 138.869 77.6105 137.396L155.211 69.7753C156.728 68.4534 155.563 65.971 153.577 66.2933L7.61145 89.9753C2.77464 90.7601 -0.912404 85.7298 1.292 81.3535L32.2276 19.9398C33.3817 17.6486 35.5646 16.05 38.0972 15.641L131.409 0.574511C137.945 -0.480717 142.861 6.40547 139.74 12.2437L124.254 41.2115C123.961 41.7596 123.43 42.1403 122.817 42.2418Z" fill="white"/>
</svg>
