<svg width="19" height="19" viewBox="0 0 19 19" fill="none" xmlns="http://www.w3.org/2000/svg">
<path d="M10.7732 19H13.3196H15.866C16.323 19 16.9237 18.6082 15.6701 17.0412C14.1031 15.0825 12.1443 12.3402 11.1649 12.5361C10.1856 12.732 9.98969 13.5954 9.98969 14.1031V17.8247C9.98969 18.7649 10.512 19 10.7732 19Z" fill="#323232"/>
<path d="M17.6289 9.98969H15.866C13.5155 9.98969 13.1237 9.98969 12.5361 10.7732C12.066 11.4 12.6014 12.2096 12.9278 12.5361C13.5155 13.0584 15.0825 14.4557 16.6495 15.866C18.2165 17.2763 18.7388 16.323 18.8041 15.6701V12.3402C18.8041 10.4598 18.0206 9.98969 17.6289 9.98969Z" fill="#323232"/>
<path d="M10.5773 8.58307e-06H13.1237H15.6701C16.1272 8.58307e-06 16.7278 0.391761 15.4742 1.95877C13.9072 3.91753 11.9485 6.6598 10.9691 6.46393C9.9897 6.26805 9.79382 5.4046 9.79382 4.89692V1.17527C9.79382 0.23506 10.3162 8.58307e-06 10.5773 8.58307e-06Z" fill="#323232"/>
<path d="M17.433 9.01031H15.6701C13.3196 9.01031 12.9278 9.01031 12.3402 8.22681C11.8701 7.60001 12.4055 6.79038 12.732 6.46392C13.3196 5.94159 14.8866 4.54434 16.4536 3.13403C18.0206 1.72372 18.543 2.67698 18.6083 3.3299V6.6598C18.6083 8.54021 17.8247 9.01031 17.433 9.01031Z" fill="#323232"/>
<path d="M8.03092 8.51947e-06L5.48453 8.31278e-06L2.93814 8.10609e-06C2.48109 8.06899e-06 1.8804 0.39176 3.13401 1.95877C4.70102 3.91753 6.65978 6.6598 7.63917 6.46393C8.61855 6.26805 8.81442 5.4046 8.81442 4.89692L8.81442 1.17527C8.81442 0.23506 8.29209 8.54067e-06 8.03092 8.51947e-06Z" fill="#323232"/>
<path d="M1.17525 9.01031L2.93814 9.01031C5.28865 9.01031 5.68041 9.01031 6.26804 8.22681C6.73814 7.60001 6.20274 6.79038 5.87628 6.46392C5.28866 5.94159 3.72165 4.54434 2.15463 3.13403C0.587625 1.72372 0.0652881 2.67698 -3.83045e-06 3.3299L-4.10074e-06 6.6598C-4.25338e-06 8.54021 0.783501 9.01031 1.17525 9.01031Z" fill="#323232"/>
<path d="M8.22681 19L5.68042 19L3.13403 19C2.67698 19 2.07629 18.6083 3.3299 17.0412C4.89691 15.0825 6.85568 12.3402 7.83506 12.5361C8.81444 12.732 9.01031 13.5954 9.01031 14.1031L9.01031 17.8247C9.01031 18.765 8.48798 19 8.22681 19Z" fill="#323232"/>
<path d="M1.37115 9.9897L3.13403 9.9897C5.48455 9.9897 5.8763 9.9897 6.46393 10.7732C6.93403 11.4 6.39864 12.2096 6.07218 12.5361C5.48455 13.0584 3.91754 14.4557 2.35053 15.866C0.783516 17.2763 0.261179 16.323 0.195888 15.6701L0.195888 12.3402C0.195888 10.4598 0.979393 9.9897 1.37115 9.9897Z" fill="#323232"/>
</svg>
