<svg width="70" height="65" viewBox="0 0 70 65" fill="none" xmlns="http://www.w3.org/2000/svg">
<path d="M67.6181 17.0871L56.0681 27.8171C54.7881 29.0071 55.0581 31.0971 56.5881 31.9271L68.4981 38.3671C70.8081 39.6171 69.9481 43.1271 67.3181 43.1671L49.4181 43.4071C48.0481 43.4271 46.9381 44.5271 46.8981 45.8971L46.5181 62.4271C46.4581 64.9271 43.2081 65.8571 41.8381 63.7671L33.8681 51.6371C33.0181 50.3471 31.2381 50.0971 30.0681 51.1071L16.8281 62.5271C14.7481 64.3271 11.6881 62.0071 12.8481 59.5171L18.8081 46.7371C19.5881 45.0771 18.4081 43.1571 16.5681 43.1071L2.47807 42.6971C-0.271931 42.6171 -0.961931 38.8471 1.57807 37.7871L17.7281 31.0871C19.1481 30.4971 19.7281 28.7871 18.9581 27.4571L11.7081 14.8871C10.4581 12.7171 12.7481 10.2371 15.0081 11.3071L29.9481 18.3971C31.1881 18.9871 32.6681 18.4871 33.3081 17.2671L41.5681 1.37713C42.7781 -0.952867 46.3081 -0.152868 46.3781 2.47713L46.7781 16.0071C46.8281 17.7571 48.5781 18.9271 50.2181 18.3271L64.9981 12.8271C67.6181 11.8571 69.6681 15.1871 67.6281 17.0871H67.6181Z" fill="black"/>
</svg>
